<svg xmlns="http://www.w3.org/2000/svg" width="280" height="280" viewBox="0 0 280 280">
  <g fill="none" stroke="#0f766e" stroke-width="1.6" stroke-linecap="round" stroke-linejoin="round" opacity="0.075">
  <g transform="translate(44 40) rotate(-12) scale(1)"><path d="M-11 -8 L-11 9 Q-2 5 0 8 Q2 5 11 9 L11 -8 Q2 -12 0 -9 Q-2 -12 -11 -8 Z"/><path d="M0 -9 L0 8"/></g>
  <g transform="translate(150 28) rotate(18) scale(0.9)"><path d="M-10 10 L-7 1 L6 -12 L10 -8 L-3 5 Z"/><path d="M-7 1 L-3 5"/></g>
  <g transform="translate(240 52) rotate(-8) scale(1)"><path d="M-12 -3 L0 -9 L12 -3 L0 3 Z"/><path d="M-7 -1 L-7 7 Q0 11 7 7 L7 -1"/></g>
  <g transform="translate(96 104) rotate(0) scale(0.85)"><circle cx="0" cy="0" r="10"/><path d="M0 -5 L0 0 L4 3"/></g>
  <g transform="translate(196 96) rotate(14) scale(0.8)"><path d="M0 -10 L3 -3 L10 -3 L4 2 L6 9 L0 5 L-6 9 L-4 2 L-10 -3 L-3 -3 Z"/></g>
  <g transform="translate(34 150) rotate(10) scale(0.9)"><path d="M-4 -10 L-4 -2 L-9 8 Q-10 11 -6 11 L6 11 Q10 11 9 8 L4 -2 L4 -10"/><path d="M-6 -10 L6 -10"/></g>
  <g transform="translate(138 168) rotate(-6) scale(0.85)"><circle cx="0" cy="0" r="2.2"/><ellipse cx="0" cy="0" rx="11" ry="4.5"/><ellipse cx="0" cy="0" rx="11" ry="4.5" transform="rotate(60)"/><ellipse cx="0" cy="0" rx="11" ry="4.5" transform="rotate(120)"/></g>
  <g transform="translate(244 148) rotate(-14) scale(0.95)"><path d="M-5 -5 Q-5 -10 0 -10 Q5 -10 5 -5 Q5 -1 0 1 L0 4"/><circle cx="0" cy="9" r="1.2"/></g>
  <g transform="translate(66 232) rotate(8) scale(0.9)"><path d="M-8 -11 L8 -11 L8 11 L-8 11 Z"/><path d="M-4 -6 L4 -6"/><path d="M-4 -1 L4 -1"/><path d="M-4 4 L1 4"/></g>
  <g transform="translate(170 240) rotate(-18) scale(0.85)"><path d="M-11 -5 L7 -11 L11 5 L-7 11 Z"/><path d="M-6 -3 L-5 0"/><path d="M-1 -5 L0 -2"/><path d="M4 -7 L5 -4"/></g>
  <g transform="translate(254 224) rotate(12) scale(0.9)"><path d="M-5 8 L5 8"/><path d="M-4 11 L4 11"/><path d="M-6 4 Q-9 -1 -6 -6 Q0 -12 6 -6 Q9 -1 6 4 Z"/></g>
  <g transform="translate(14 96) rotate(-20) scale(0.8)"><path d="M6 -8 L-4 2 Q-8 6 -4 10 Q0 14 4 10 L11 3"/></g>
  </g>
</svg>