<svg xmlns="http://www.w3.org/2000/svg" width="320" height="320" viewBox="0 0 320 320">
  <g fill="none" stroke="#36669c" stroke-width="1.5" stroke-linecap="round" stroke-linejoin="round" opacity="0.07">
  <g transform="translate(52 46) rotate(0) scale(1)"><circle cx="0" cy="0" r="11"/><circle cx="0" cy="0" r="5"/></g>
  <g transform="translate(168 30) rotate(14) scale(0.95)"><path d="M0 -11 Q1.5 -1.5 11 0 Q1.5 1.5 0 11 Q-1.5 1.5 -11 0 Q-1.5 -1.5 0 -11 Z"/></g>
  <g transform="translate(268 62) rotate(-8) scale(1)"><path d="M-13 0 Q-6.5 -7 0 0 T13 0"/></g>
  <g transform="translate(108 118) rotate(20) scale(0.9)"><path d="M0 -9 L0 9"/><path d="M-9 0 L9 0"/></g>
  <g transform="translate(228 142) rotate(-12) scale(0.85)"><path d="M0 -10 L9 7 L-9 7 Z"/></g>
  <g transform="translate(34 158) rotate(30) scale(1)"><circle cx="-7" cy="0" r="1.6"/><circle cx="0" cy="0" r="1.6"/><circle cx="7" cy="0" r="1.6"/></g>
  <g transform="translate(296 176) rotate(18) scale(0.85)"><rect x="-8" y="-8" width="16" height="16" rx="3"/></g>
  <g transform="translate(138 214) rotate(8) scale(1)"><path d="M-10 7 A 12 12 0 0 1 10 7"/></g>
  <g transform="translate(244 258) rotate(-14) scale(0.9)"><path d="M-7 -6 L2 0 L-7 6"/><path d="M2 -6 L11 0 L2 6"/></g>
  <g transform="translate(60 266) rotate(0) scale(0.75)"><circle cx="0" cy="0" r="11"/><circle cx="0" cy="0" r="5"/></g>
  <g transform="translate(300 300) rotate(22) scale(0.7)"><path d="M0 -11 Q1.5 -1.5 11 0 Q1.5 1.5 0 11 Q-1.5 1.5 -11 0 Q-1.5 -1.5 0 -11 Z"/></g>
  <g transform="translate(190 300) rotate(-16) scale(0.75)"><path d="M0 -9 L0 9"/><path d="M-9 0 L9 0"/></g>
  </g>
</svg>