<svg xmlns="http://www.w3.org/2000/svg" viewBox="0 0 430 250" width="430" height="250" fill="none">
<defs>
  <linearGradient id="light" x1="215" y1="0" x2="215" y2="250" gradientUnits="userSpaceOnUse">
    <stop stop-color="#10b981" stop-opacity="0.10"/><stop offset="1" stop-color="#10b981" stop-opacity="0"/>
  </linearGradient>
</defs>
<rect x="0" y="0" width="430" height="250" fill="url(#light)"/>

<g color="#34d399" opacity="0.1">
  <g transform="translate(30 -18) rotate(74)"><path d="M 0 0 L 4.6 2.2 L 9.2 4.4 L 13.8 6.6 L 18.3 8.8 L 22.9 10.9 L 27.5 12.9 L 32.1 14.9 L 36.7 16.8 L 41.3 18.6 L 45.8 20.3 L 50.4 21.9 L 55 23.3 L 59.6 24.6 L 64.2 25.8 L 68.8 26.9 L 73.3 27.8 L 77.9 28.6 L 82.5 29.2 L 87.1 29.6 L 91.7 29.9 L 96.3 30 L 100.8 29.9 L 105.4 29.7 L 110 29.3 L 114.6 28.8 L 119.2 28.1 L 123.8 27.2 L 128.3 26.2 L 132.9 25.1 L 137.5 23.8 L 142.1 22.4 L 146.7 20.8 L 151.3 19.2 L 155.8 17.4 L 160.4 15.6 L 165 13.6" fill="none" stroke="currentColor" stroke-width="2.2" stroke-linecap="round"/><path d="M0 0 C 1.4 -2.2 5.1 -2.4 8.5 0 C 5.1 2.4 1.4 2.2 0 0 Z" transform="translate(10.3 5) rotate(-29.4)" fill="currentColor"/><path d="M0 0 C 1.4 -2.2 5.1 -2.4 8.5 0 C 5.1 2.4 1.4 2.2 0 0 Z" transform="translate(10.3 5) rotate(80.6)" fill="currentColor"/><path d="M0 0 C 2.1 -3.4 7.8 -3.7 13.1 0 C 7.8 3.7 2.1 3.4 0 0 Z" transform="translate(20.6 9.8) rotate(-30.4)" fill="currentColor"/><path d="M0 0 C 2.1 -3.4 7.8 -3.7 13.1 0 C 7.8 3.7 2.1 3.4 0 0 Z" transform="translate(20.6 9.8) rotate(79.6)" fill="currentColor"/><path d="M0 0 C 2.6 -4.2 9.6 -4.5 16 0 C 9.6 4.5 2.6 4.2 0 0 Z" transform="translate(30.9 14.4) rotate(-31.9)" fill="currentColor"/><path d="M0 0 C 2.6 -4.2 9.6 -4.5 16 0 C 9.6 4.5 2.6 4.2 0 0 Z" transform="translate(30.9 14.4) rotate(78.1)" fill="currentColor"/><path d="M0 0 C 2.8 -4.6 10.7 -5 17.8 0 C 10.7 5 2.8 4.6 0 0 Z" transform="translate(41.3 18.6) rotate(-34.1)" fill="currentColor"/><path d="M0 0 C 2.8 -4.6 10.7 -5 17.8 0 C 10.7 5 2.8 4.6 0 0 Z" transform="translate(41.3 18.6) rotate(75.9)" fill="currentColor"/><path d="M0 0 C 3 -4.8 11.2 -5.2 18.6 0 C 11.2 5.2 3 4.8 0 0 Z" transform="translate(51.6 22.2) rotate(-36.9)" fill="currentColor"/><path d="M0 0 C 3 -4.8 11.2 -5.2 18.6 0 C 11.2 5.2 3 4.8 0 0 Z" transform="translate(51.6 22.2) rotate(73.1)" fill="currentColor"/><path d="M0 0 C 3 -4.8 11.2 -5.2 18.6 0 C 11.2 5.2 3 4.8 0 0 Z" transform="translate(61.9 25.3) rotate(-40.3)" fill="currentColor"/><path d="M0 0 C 3 -4.8 11.2 -5.2 18.6 0 C 11.2 5.2 3 4.8 0 0 Z" transform="translate(61.9 25.3) rotate(69.7)" fill="currentColor"/><path d="M0 0 C 2.9 -4.7 10.8 -5.1 18 0 C 10.8 5.1 2.9 4.7 0 0 Z" transform="translate(72.2 27.6) rotate(-44.2)" fill="currentColor"/><path d="M0 0 C 2.9 -4.7 10.8 -5.1 18 0 C 10.8 5.1 2.9 4.7 0 0 Z" transform="translate(72.2 27.6) rotate(65.8)" fill="currentColor"/><path d="M0 0 C 2.7 -4.4 10.1 -4.7 16.8 0 C 10.1 4.7 2.7 4.4 0 0 Z" transform="translate(82.5 29.2) rotate(-48.5)" fill="currentColor"/><path d="M0 0 C 2.7 -4.4 10.1 -4.7 16.8 0 C 10.1 4.7 2.7 4.4 0 0 Z" transform="translate(82.5 29.2) rotate(61.5)" fill="currentColor"/><path d="M0 0 C 2.4 -4 9.2 -4.3 15.3 0 C 9.2 4.3 2.4 4 0 0 Z" transform="translate(92.8 29.9) rotate(-53.1)" fill="currentColor"/><path d="M0 0 C 2.4 -4 9.2 -4.3 15.3 0 C 9.2 4.3 2.4 4 0 0 Z" transform="translate(92.8 29.9) rotate(56.9)" fill="currentColor"/><path d="M0 0 C 2.1 -3.5 8 -3.8 13.4 0 C 8 3.8 2.1 3.5 0 0 Z" transform="translate(103.1 29.9) rotate(-57.7)" fill="currentColor"/><path d="M0 0 C 2.1 -3.5 8 -3.8 13.4 0 C 8 3.8 2.1 3.5 0 0 Z" transform="translate(103.1 29.9) rotate(52.3)" fill="currentColor"/><path d="M0 0 C 1.8 -2.9 6.8 -3.2 11.3 0 C 6.8 3.2 1.8 2.9 0 0 Z" transform="translate(113.4 29) rotate(-62.2)" fill="currentColor"/><path d="M0 0 C 1.8 -2.9 6.8 -3.2 11.3 0 C 6.8 3.2 1.8 2.9 0 0 Z" transform="translate(113.4 29) rotate(47.8)" fill="currentColor"/><path d="M0 0 C 1.4 -2.3 5.4 -2.5 9 0 C 5.4 2.5 1.4 2.3 0 0 Z" transform="translate(123.8 27.2) rotate(-66.5)" fill="currentColor"/><path d="M0 0 C 1.4 -2.3 5.4 -2.5 9 0 C 5.4 2.5 1.4 2.3 0 0 Z" transform="translate(123.8 27.2) rotate(43.5)" fill="currentColor"/><path d="M0 0 C 1.1 -1.7 4 -1.9 6.7 0 C 4 1.9 1.1 1.7 0 0 Z" transform="translate(134.1 24.8) rotate(-70.3)" fill="currentColor"/><path d="M0 0 C 1.1 -1.7 4 -1.9 6.7 0 C 4 1.9 1.1 1.7 0 0 Z" transform="translate(134.1 24.8) rotate(39.7)" fill="currentColor"/><path d="M0 0 C 0.7 -1.1 2.6 -1.2 4.4 0 C 2.6 1.2 0.7 1.1 0 0 Z" transform="translate(144.4 21.6) rotate(-73.6)" fill="currentColor"/><path d="M0 0 C 0.7 -1.1 2.6 -1.2 4.4 0 C 2.6 1.2 0.7 1.1 0 0 Z" transform="translate(144.4 21.6) rotate(36.4)" fill="currentColor"/></g>
  <g transform="translate(168 -26) rotate(96)"><path d="M 0 0 L 3.9 -1.9 L 7.8 -3.8 L 11.7 -5.7 L 15.6 -7.6 L 19.4 -9.4 L 23.3 -11.2 L 27.2 -12.9 L 31.1 -14.5 L 35 -16.1 L 38.9 -17.6 L 42.8 -18.9 L 46.7 -20.2 L 50.6 -21.4 L 54.4 -22.4 L 58.3 -23.3 L 62.2 -24.1 L 66.1 -24.8 L 70 -25.3 L 73.9 -25.7 L 77.8 -25.9 L 81.7 -26 L 85.6 -26 L 89.4 -25.8 L 93.3 -25.4 L 97.2 -25 L 101.1 -24.4 L 105 -23.6 L 108.9 -22.7 L 112.8 -21.7 L 116.7 -20.6 L 120.6 -19.4 L 124.4 -18.1 L 128.3 -16.6 L 132.2 -15.1 L 136.1 -13.5 L 140 -11.8" fill="none" stroke="currentColor" stroke-width="2.2" stroke-linecap="round"/><path d="M0 0 C 1.3 -2.1 4.8 -2.2 8 0 C 4.8 2.2 1.3 2.1 0 0 Z" transform="translate(10 -4.9) rotate(-81)" fill="currentColor"/><path d="M0 0 C 1.3 -2.1 4.8 -2.2 8 0 C 4.8 2.2 1.3 2.1 0 0 Z" transform="translate(10 -4.9) rotate(29)" fill="currentColor"/><path d="M0 0 C 1.9 -3.1 7.2 -3.4 12 0 C 7.2 3.4 1.9 3.1 0 0 Z" transform="translate(20 -9.7) rotate(-79.7)" fill="currentColor"/><path d="M0 0 C 1.9 -3.1 7.2 -3.4 12 0 C 7.2 3.4 1.9 3.1 0 0 Z" transform="translate(20 -9.7) rotate(30.3)" fill="currentColor"/><path d="M0 0 C 2.3 -3.8 8.7 -4.1 14.5 0 C 8.7 4.1 2.3 3.8 0 0 Z" transform="translate(30 -14.1) rotate(-77.6)" fill="currentColor"/><path d="M0 0 C 2.3 -3.8 8.7 -4.1 14.5 0 C 8.7 4.1 2.3 3.8 0 0 Z" transform="translate(30 -14.1) rotate(32.4)" fill="currentColor"/><path d="M0 0 C 2.5 -4.1 9.4 -4.4 15.7 0 C 9.4 4.4 2.5 4.1 0 0 Z" transform="translate(40 -18) rotate(-74.7)" fill="currentColor"/><path d="M0 0 C 2.5 -4.1 9.4 -4.4 15.7 0 C 9.4 4.4 2.5 4.1 0 0 Z" transform="translate(40 -18) rotate(35.3)" fill="currentColor"/><path d="M0 0 C 2.6 -4.2 9.6 -4.5 16 0 C 9.6 4.5 2.6 4.2 0 0 Z" transform="translate(50 -21.2) rotate(-71)" fill="currentColor"/><path d="M0 0 C 2.6 -4.2 9.6 -4.5 16 0 C 9.6 4.5 2.6 4.2 0 0 Z" transform="translate(50 -21.2) rotate(39)" fill="currentColor"/><path d="M0 0 C 2.5 -4 9.3 -4.4 15.5 0 C 9.3 4.4 2.5 4 0 0 Z" transform="translate(60 -23.7) rotate(-66.6)" fill="currentColor"/><path d="M0 0 C 2.5 -4 9.3 -4.4 15.5 0 C 9.3 4.4 2.5 4 0 0 Z" transform="translate(60 -23.7) rotate(43.4)" fill="currentColor"/><path d="M0 0 C 2.3 -3.8 8.7 -4.1 14.4 0 C 8.7 4.1 2.3 3.8 0 0 Z" transform="translate(70 -25.3) rotate(-61.6)" fill="currentColor"/><path d="M0 0 C 2.3 -3.8 8.7 -4.1 14.4 0 C 8.7 4.1 2.3 3.8 0 0 Z" transform="translate(70 -25.3) rotate(48.4)" fill="currentColor"/><path d="M0 0 C 2.1 -3.3 7.7 -3.6 12.9 0 C 7.7 3.6 2.1 3.3 0 0 Z" transform="translate(80 -26) rotate(-56.3)" fill="currentColor"/><path d="M0 0 C 2.1 -3.3 7.7 -3.6 12.9 0 C 7.7 3.6 2.1 3.3 0 0 Z" transform="translate(80 -26) rotate(53.7)" fill="currentColor"/><path d="M0 0 C 1.8 -2.9 6.6 -3.1 11 0 C 6.6 3.1 1.8 2.9 0 0 Z" transform="translate(90 -25.7) rotate(-50.9)" fill="currentColor"/><path d="M0 0 C 1.8 -2.9 6.6 -3.1 11 0 C 6.6 3.1 1.8 2.9 0 0 Z" transform="translate(90 -25.7) rotate(59.1)" fill="currentColor"/><path d="M0 0 C 1.4 -2.3 5.3 -2.5 8.8 0 C 5.3 2.5 1.4 2.3 0 0 Z" transform="translate(100 -24.5) rotate(-45.7)" fill="currentColor"/><path d="M0 0 C 1.4 -2.3 5.3 -2.5 8.8 0 C 5.3 2.5 1.4 2.3 0 0 Z" transform="translate(100 -24.5) rotate(64.3)" fill="currentColor"/><path d="M0 0 C 1.1 -1.7 4 -1.9 6.6 0 C 4 1.9 1.1 1.7 0 0 Z" transform="translate(110 -22.5) rotate(-41)" fill="currentColor"/><path d="M0 0 C 1.1 -1.7 4 -1.9 6.6 0 C 4 1.9 1.1 1.7 0 0 Z" transform="translate(110 -22.5) rotate(69)" fill="currentColor"/><path d="M0 0 C 0.7 -1.1 2.6 -1.2 4.3 0 C 2.6 1.2 0.7 1.1 0 0 Z" transform="translate(120 -19.6) rotate(-36.9)" fill="currentColor"/><path d="M0 0 C 0.7 -1.1 2.6 -1.2 4.3 0 C 2.6 1.2 0.7 1.1 0 0 Z" transform="translate(120 -19.6) rotate(73.1)" fill="currentColor"/></g>
  <g transform="translate(300 -22) rotate(84)"><path d="M 0 0 L 4.3 2.1 L 8.6 4.1 L 12.9 6.2 L 17.2 8.2 L 21.5 10.1 L 25.8 12.1 L 30.1 13.9 L 34.4 15.7 L 38.8 17.3 L 43.1 18.9 L 47.4 20.4 L 51.7 21.8 L 56 23 L 60.3 24.1 L 64.6 25.1 L 68.9 26 L 73.2 26.7 L 77.5 27.2 L 81.8 27.6 L 86.1 27.9 L 90.4 28 L 94.7 27.9 L 99 27.7 L 103.3 27.4 L 107.6 26.9 L 111.9 26.2 L 116.3 25.4 L 120.6 24.5 L 124.9 23.4 L 129.2 22.2 L 133.5 20.9 L 137.8 19.5 L 142.1 17.9 L 146.4 16.3 L 150.7 14.5 L 155 12.7" fill="none" stroke="currentColor" stroke-width="2.2" stroke-linecap="round"/><path d="M0 0 C 1.4 -2.2 5.1 -2.4 8.5 0 C 5.1 2.4 1.4 2.2 0 0 Z" transform="translate(10.3 5) rotate(-29.6)" fill="currentColor"/><path d="M0 0 C 1.4 -2.2 5.1 -2.4 8.5 0 C 5.1 2.4 1.4 2.2 0 0 Z" transform="translate(10.3 5) rotate(80.4)" fill="currentColor"/><path d="M0 0 C 2.1 -3.4 7.7 -3.6 12.9 0 C 7.7 3.6 2.1 3.4 0 0 Z" transform="translate(20.7 9.8) rotate(-30.7)" fill="currentColor"/><path d="M0 0 C 2.1 -3.4 7.7 -3.6 12.9 0 C 7.7 3.6 2.1 3.4 0 0 Z" transform="translate(20.7 9.8) rotate(79.3)" fill="currentColor"/><path d="M0 0 C 2.5 -4.1 9.4 -4.4 15.7 0 C 9.4 4.4 2.5 4.1 0 0 Z" transform="translate(31 14.3) rotate(-32.5)" fill="currentColor"/><path d="M0 0 C 2.5 -4.1 9.4 -4.4 15.7 0 C 9.4 4.4 2.5 4.1 0 0 Z" transform="translate(31 14.3) rotate(77.5)" fill="currentColor"/><path d="M0 0 C 2.8 -4.5 10.3 -4.8 17.2 0 C 10.3 4.8 2.8 4.5 0 0 Z" transform="translate(41.3 18.3) rotate(-34.9)" fill="currentColor"/><path d="M0 0 C 2.8 -4.5 10.3 -4.8 17.2 0 C 10.3 4.8 2.8 4.5 0 0 Z" transform="translate(41.3 18.3) rotate(75.1)" fill="currentColor"/><path d="M0 0 C 2.8 -4.6 10.7 -5 17.8 0 C 10.7 5 2.8 4.6 0 0 Z" transform="translate(51.7 21.8) rotate(-38.1)" fill="currentColor"/><path d="M0 0 C 2.8 -4.6 10.7 -5 17.8 0 C 10.7 5 2.8 4.6 0 0 Z" transform="translate(51.7 21.8) rotate(71.9)" fill="currentColor"/><path d="M0 0 C 2.8 -4.6 10.5 -4.9 17.6 0 C 10.5 4.9 2.8 4.6 0 0 Z" transform="translate(62 24.5) rotate(-41.9)" fill="currentColor"/><path d="M0 0 C 2.8 -4.6 10.5 -4.9 17.6 0 C 10.5 4.9 2.8 4.6 0 0 Z" transform="translate(62 24.5) rotate(68.1)" fill="currentColor"/><path d="M0 0 C 2.7 -4.3 10 -4.7 16.7 0 C 10 4.7 2.7 4.3 0 0 Z" transform="translate(72.3 26.5) rotate(-46.3)" fill="currentColor"/><path d="M0 0 C 2.7 -4.3 10 -4.7 16.7 0 C 10 4.7 2.7 4.3 0 0 Z" transform="translate(72.3 26.5) rotate(63.7)" fill="currentColor"/><path d="M0 0 C 2.4 -4 9.2 -4.3 15.3 0 C 9.2 4.3 2.4 4 0 0 Z" transform="translate(82.7 27.7) rotate(-51)" fill="currentColor"/><path d="M0 0 C 2.4 -4 9.2 -4.3 15.3 0 C 9.2 4.3 2.4 4 0 0 Z" transform="translate(82.7 27.7) rotate(59)" fill="currentColor"/><path d="M0 0 C 2.2 -3.5 8.1 -3.8 13.5 0 C 8.1 3.8 2.2 3.5 0 0 Z" transform="translate(93 28) rotate(-55.9)" fill="currentColor"/><path d="M0 0 C 2.2 -3.5 8.1 -3.8 13.5 0 C 8.1 3.8 2.2 3.5 0 0 Z" transform="translate(93 28) rotate(54.1)" fill="currentColor"/><path d="M0 0 C 1.8 -3 6.9 -3.2 11.4 0 C 6.9 3.2 1.8 3 0 0 Z" transform="translate(103.3 27.4) rotate(-60.7)" fill="currentColor"/><path d="M0 0 C 1.8 -3 6.9 -3.2 11.4 0 C 6.9 3.2 1.8 3 0 0 Z" transform="translate(103.3 27.4) rotate(49.3)" fill="currentColor"/><path d="M0 0 C 1.5 -2.4 5.5 -2.6 9.2 0 C 5.5 2.6 1.5 2.4 0 0 Z" transform="translate(113.7 25.9) rotate(-65.3)" fill="currentColor"/><path d="M0 0 C 1.5 -2.4 5.5 -2.6 9.2 0 C 5.5 2.6 1.5 2.4 0 0 Z" transform="translate(113.7 25.9) rotate(44.7)" fill="currentColor"/><path d="M0 0 C 1.1 -1.8 4.1 -1.9 6.8 0 C 4.1 1.9 1.1 1.8 0 0 Z" transform="translate(124 23.6) rotate(-69.5)" fill="currentColor"/><path d="M0 0 C 1.1 -1.8 4.1 -1.9 6.8 0 C 4.1 1.9 1.1 1.8 0 0 Z" transform="translate(124 23.6) rotate(40.5)" fill="currentColor"/><path d="M0 0 C 0.7 -1.2 2.7 -1.3 4.5 0 C 2.7 1.3 0.7 1.2 0 0 Z" transform="translate(134.3 20.6) rotate(-73.1)" fill="currentColor"/><path d="M0 0 C 0.7 -1.2 2.7 -1.3 4.5 0 C 2.7 1.3 0.7 1.2 0 0 Z" transform="translate(134.3 20.6) rotate(36.9)" fill="currentColor"/></g>
  <g transform="translate(412 -14) rotate(108)"><path d="M 0 0 L 4.2 -2.1 L 8.3 -4.1 L 12.5 -6.2 L 16.7 -8.2 L 20.8 -10.1 L 25 -12.1 L 29.2 -13.9 L 33.3 -15.7 L 37.5 -17.3 L 41.7 -18.9 L 45.8 -20.4 L 50 -21.8 L 54.2 -23 L 58.3 -24.1 L 62.5 -25.1 L 66.7 -26 L 70.8 -26.7 L 75 -27.2 L 79.2 -27.6 L 83.3 -27.9 L 87.5 -28 L 91.7 -27.9 L 95.8 -27.7 L 100 -27.4 L 104.2 -26.9 L 108.3 -26.2 L 112.5 -25.4 L 116.7 -24.5 L 120.8 -23.4 L 125 -22.2 L 129.2 -20.9 L 133.3 -19.5 L 137.5 -17.9 L 141.7 -16.3 L 145.8 -14.5 L 150 -12.7" fill="none" stroke="currentColor" stroke-width="2.2" stroke-linecap="round"/><path d="M0 0 C 1.3 -2.1 4.8 -2.3 8 0 C 4.8 2.3 1.3 2.1 0 0 Z" transform="translate(10 -5) rotate(-81.1)" fill="currentColor"/><path d="M0 0 C 1.3 -2.1 4.8 -2.3 8 0 C 4.8 2.3 1.3 2.1 0 0 Z" transform="translate(10 -5) rotate(28.9)" fill="currentColor"/><path d="M0 0 C 2 -3.2 7.4 -3.4 12.3 0 C 7.4 3.4 2 3.2 0 0 Z" transform="translate(20 -9.8) rotate(-80)" fill="currentColor"/><path d="M0 0 C 2 -3.2 7.4 -3.4 12.3 0 C 7.4 3.4 2 3.2 0 0 Z" transform="translate(20 -9.8) rotate(30)" fill="currentColor"/><path d="M0 0 C 2.4 -3.9 8.9 -4.2 14.9 0 C 8.9 4.2 2.4 3.9 0 0 Z" transform="translate(30 -14.3) rotate(-78.2)" fill="currentColor"/><path d="M0 0 C 2.4 -3.9 8.9 -4.2 14.9 0 C 8.9 4.2 2.4 3.9 0 0 Z" transform="translate(30 -14.3) rotate(31.8)" fill="currentColor"/><path d="M0 0 C 2.6 -4.3 9.8 -4.6 16.4 0 C 9.8 4.6 2.6 4.3 0 0 Z" transform="translate(40 -18.3) rotate(-75.7)" fill="currentColor"/><path d="M0 0 C 2.6 -4.3 9.8 -4.6 16.4 0 C 9.8 4.6 2.6 4.3 0 0 Z" transform="translate(40 -18.3) rotate(34.3)" fill="currentColor"/><path d="M0 0 C 2.7 -4.4 10.2 -4.8 16.9 0 C 10.2 4.8 2.7 4.4 0 0 Z" transform="translate(50 -21.8) rotate(-72.4)" fill="currentColor"/><path d="M0 0 C 2.7 -4.4 10.2 -4.8 16.9 0 C 10.2 4.8 2.7 4.4 0 0 Z" transform="translate(50 -21.8) rotate(37.6)" fill="currentColor"/><path d="M0 0 C 2.7 -4.3 10 -4.7 16.7 0 C 10 4.7 2.7 4.3 0 0 Z" transform="translate(60 -24.5) rotate(-68.5)" fill="currentColor"/><path d="M0 0 C 2.7 -4.3 10 -4.7 16.7 0 C 10 4.7 2.7 4.3 0 0 Z" transform="translate(60 -24.5) rotate(41.5)" fill="currentColor"/><path d="M0 0 C 2.5 -4.1 9.5 -4.5 15.9 0 C 9.5 4.5 2.5 4.1 0 0 Z" transform="translate(70 -26.5) rotate(-64)" fill="currentColor"/><path d="M0 0 C 2.5 -4.1 9.5 -4.5 15.9 0 C 9.5 4.5 2.5 4.1 0 0 Z" transform="translate(70 -26.5) rotate(46)" fill="currentColor"/><path d="M0 0 C 2.3 -3.8 8.7 -4.1 14.5 0 C 8.7 4.1 2.3 3.8 0 0 Z" transform="translate(80 -27.7) rotate(-59.2)" fill="currentColor"/><path d="M0 0 C 2.3 -3.8 8.7 -4.1 14.5 0 C 8.7 4.1 2.3 3.8 0 0 Z" transform="translate(80 -27.7) rotate(50.8)" fill="currentColor"/><path d="M0 0 C 2.1 -3.3 7.7 -3.6 12.8 0 C 7.7 3.6 2.1 3.3 0 0 Z" transform="translate(90 -28) rotate(-54.1)" fill="currentColor"/><path d="M0 0 C 2.1 -3.3 7.7 -3.6 12.8 0 C 7.7 3.6 2.1 3.3 0 0 Z" transform="translate(90 -28) rotate(55.9)" fill="currentColor"/><path d="M0 0 C 1.7 -2.8 6.5 -3 10.9 0 C 6.5 3 1.7 2.8 0 0 Z" transform="translate(100 -27.4) rotate(-49.1)" fill="currentColor"/><path d="M0 0 C 1.7 -2.8 6.5 -3 10.9 0 C 6.5 3 1.7 2.8 0 0 Z" transform="translate(100 -27.4) rotate(60.9)" fill="currentColor"/><path d="M0 0 C 1.4 -2.3 5.2 -2.4 8.7 0 C 5.2 2.4 1.4 2.3 0 0 Z" transform="translate(110 -25.9) rotate(-44.3)" fill="currentColor"/><path d="M0 0 C 1.4 -2.3 5.2 -2.4 8.7 0 C 5.2 2.4 1.4 2.3 0 0 Z" transform="translate(110 -25.9) rotate(65.7)" fill="currentColor"/><path d="M0 0 C 1 -1.7 3.9 -1.8 6.5 0 C 3.9 1.8 1 1.7 0 0 Z" transform="translate(120 -23.6) rotate(-40)" fill="currentColor"/><path d="M0 0 C 1 -1.7 3.9 -1.8 6.5 0 C 3.9 1.8 1 1.7 0 0 Z" transform="translate(120 -23.6) rotate(70)" fill="currentColor"/><path d="M0 0 C 0.7 -1.1 2.6 -1.2 4.3 0 C 2.6 1.2 0.7 1.1 0 0 Z" transform="translate(130 -20.6) rotate(-36.4)" fill="currentColor"/><path d="M0 0 C 0.7 -1.1 2.6 -1.2 4.3 0 C 2.6 1.2 0.7 1.1 0 0 Z" transform="translate(130 -20.6) rotate(73.6)" fill="currentColor"/></g>
</g>

<g color="#059669" opacity="0.16">
  <g transform="translate(-14 -26) rotate(62)"><path d="M0 0 C 20.8 -29 78 -31.3 130 0 C 78 31.3 20.8 29 0 0 Z" fill="currentColor"/><path d="M 5.2 0 L 123.5 0" fill="none" stroke="#fff" stroke-opacity="0.5" stroke-width="1.4" stroke-linecap="round"/><path d="M 36.4 0 Q 39 -14.9 57.2 -19.9" fill="none" stroke="#fff" stroke-opacity="0.38" stroke-width="1" stroke-linecap="round"/><path d="M 36.4 0 Q 39 14.9 57.2 19.9" fill="none" stroke="#fff" stroke-opacity="0.38" stroke-width="1" stroke-linecap="round"/><path d="M 54.6 0 Q 57.2 -18.4 75.4 -24.5" fill="none" stroke="#fff" stroke-opacity="0.38" stroke-width="1" stroke-linecap="round"/><path d="M 54.6 0 Q 57.2 18.4 75.4 24.5" fill="none" stroke="#fff" stroke-opacity="0.38" stroke-width="1" stroke-linecap="round"/><path d="M 72.8 0 Q 75.4 -18 93.6 -24" fill="none" stroke="#fff" stroke-opacity="0.38" stroke-width="1" stroke-linecap="round"/><path d="M 72.8 0 Q 75.4 18 93.6 24" fill="none" stroke="#fff" stroke-opacity="0.38" stroke-width="1" stroke-linecap="round"/><path d="M 91 0 Q 93.6 -13.8 111.8 -18.4" fill="none" stroke="#fff" stroke-opacity="0.38" stroke-width="1" stroke-linecap="round"/><path d="M 91 0 Q 93.6 13.8 111.8 18.4" fill="none" stroke="#fff" stroke-opacity="0.38" stroke-width="1" stroke-linecap="round"/><path d="M 109.2 0 Q 111.8 -6.8 130 -9" fill="none" stroke="#fff" stroke-opacity="0.38" stroke-width="1" stroke-linecap="round"/><path d="M 109.2 0 Q 111.8 6.8 130 9" fill="none" stroke="#fff" stroke-opacity="0.38" stroke-width="1" stroke-linecap="round"/><path d="M -23.4 0 L 0 0" fill="none" stroke="currentColor" stroke-width="2.4" stroke-linecap="round"/></g>
  <g transform="translate(96 -34) rotate(84)"><path d="M0 0 C 17.9 -25 67.2 -27 112 0 C 67.2 27 17.9 25 0 0 Z" fill="currentColor"/><path d="M 4.5 0 L 106.4 0" fill="none" stroke="#fff" stroke-opacity="0.5" stroke-width="1.4" stroke-linecap="round"/><path d="M 31.4 0 Q 33.6 -12.9 49.3 -17.2" fill="none" stroke="#fff" stroke-opacity="0.38" stroke-width="1" stroke-linecap="round"/><path d="M 31.4 0 Q 33.6 12.9 49.3 17.2" fill="none" stroke="#fff" stroke-opacity="0.38" stroke-width="1" stroke-linecap="round"/><path d="M 47 0 Q 49.3 -15.8 65 -21.1" fill="none" stroke="#fff" stroke-opacity="0.38" stroke-width="1" stroke-linecap="round"/><path d="M 47 0 Q 49.3 15.8 65 21.1" fill="none" stroke="#fff" stroke-opacity="0.38" stroke-width="1" stroke-linecap="round"/><path d="M 62.7 0 Q 65 -15.5 80.6 -20.7" fill="none" stroke="#fff" stroke-opacity="0.38" stroke-width="1" stroke-linecap="round"/><path d="M 62.7 0 Q 65 15.5 80.6 20.7" fill="none" stroke="#fff" stroke-opacity="0.38" stroke-width="1" stroke-linecap="round"/><path d="M 78.4 0 Q 80.6 -11.9 96.3 -15.9" fill="none" stroke="#fff" stroke-opacity="0.38" stroke-width="1" stroke-linecap="round"/><path d="M 78.4 0 Q 80.6 11.9 96.3 15.9" fill="none" stroke="#fff" stroke-opacity="0.38" stroke-width="1" stroke-linecap="round"/><path d="M 94.1 0 Q 96.3 -5.8 112 -7.8" fill="none" stroke="#fff" stroke-opacity="0.38" stroke-width="1" stroke-linecap="round"/><path d="M 94.1 0 Q 96.3 5.8 112 7.8" fill="none" stroke="#fff" stroke-opacity="0.38" stroke-width="1" stroke-linecap="round"/><path d="M -20.2 0 L 0 0" fill="none" stroke="currentColor" stroke-width="2.4" stroke-linecap="round"/></g>
  <g transform="translate(214 -30) rotate(72)"><path d="M0 0 C 19.8 -27.5 74.4 -29.7 124 0 C 74.4 29.7 19.8 27.5 0 0 Z" fill="currentColor"/><path d="M 5 0 L 117.8 0" fill="none" stroke="#fff" stroke-opacity="0.5" stroke-width="1.4" stroke-linecap="round"/><path d="M 34.7 0 Q 37.2 -14.2 54.6 -18.9" fill="none" stroke="#fff" stroke-opacity="0.38" stroke-width="1" stroke-linecap="round"/><path d="M 34.7 0 Q 37.2 14.2 54.6 18.9" fill="none" stroke="#fff" stroke-opacity="0.38" stroke-width="1" stroke-linecap="round"/><path d="M 52.1 0 Q 54.6 -17.4 71.9 -23.2" fill="none" stroke="#fff" stroke-opacity="0.38" stroke-width="1" stroke-linecap="round"/><path d="M 52.1 0 Q 54.6 17.4 71.9 23.2" fill="none" stroke="#fff" stroke-opacity="0.38" stroke-width="1" stroke-linecap="round"/><path d="M 69.4 0 Q 71.9 -17.1 89.3 -22.8" fill="none" stroke="#fff" stroke-opacity="0.38" stroke-width="1" stroke-linecap="round"/><path d="M 69.4 0 Q 71.9 17.1 89.3 22.8" fill="none" stroke="#fff" stroke-opacity="0.38" stroke-width="1" stroke-linecap="round"/><path d="M 86.8 0 Q 89.3 -13.1 106.6 -17.5" fill="none" stroke="#fff" stroke-opacity="0.38" stroke-width="1" stroke-linecap="round"/><path d="M 86.8 0 Q 89.3 13.1 106.6 17.5" fill="none" stroke="#fff" stroke-opacity="0.38" stroke-width="1" stroke-linecap="round"/><path d="M 104.2 0 Q 106.6 -6.4 124 -8.6" fill="none" stroke="#fff" stroke-opacity="0.38" stroke-width="1" stroke-linecap="round"/><path d="M 104.2 0 Q 106.6 6.4 124 8.6" fill="none" stroke="#fff" stroke-opacity="0.38" stroke-width="1" stroke-linecap="round"/><path d="M -22.3 0 L 0 0" fill="none" stroke="currentColor" stroke-width="2.4" stroke-linecap="round"/></g>
  <g transform="translate(336 -34) rotate(100)"><path d="M0 0 C 18.6 -26 69.6 -28.1 116 0 C 69.6 28.1 18.6 26 0 0 Z" fill="currentColor"/><path d="M 4.6 0 L 110.2 0" fill="none" stroke="#fff" stroke-opacity="0.5" stroke-width="1.4" stroke-linecap="round"/><path d="M 32.5 0 Q 34.8 -13.4 51 -17.8" fill="none" stroke="#fff" stroke-opacity="0.38" stroke-width="1" stroke-linecap="round"/><path d="M 32.5 0 Q 34.8 13.4 51 17.8" fill="none" stroke="#fff" stroke-opacity="0.38" stroke-width="1" stroke-linecap="round"/><path d="M 48.7 0 Q 51 -16.5 67.3 -22" fill="none" stroke="#fff" stroke-opacity="0.38" stroke-width="1" stroke-linecap="round"/><path d="M 48.7 0 Q 51 16.5 67.3 22" fill="none" stroke="#fff" stroke-opacity="0.38" stroke-width="1" stroke-linecap="round"/><path d="M 65 0 Q 67.3 -16.1 83.5 -21.5" fill="none" stroke="#fff" stroke-opacity="0.38" stroke-width="1" stroke-linecap="round"/><path d="M 65 0 Q 67.3 16.1 83.5 21.5" fill="none" stroke="#fff" stroke-opacity="0.38" stroke-width="1" stroke-linecap="round"/><path d="M 81.2 0 Q 83.5 -12.4 99.8 -16.5" fill="none" stroke="#fff" stroke-opacity="0.38" stroke-width="1" stroke-linecap="round"/><path d="M 81.2 0 Q 83.5 12.4 99.8 16.5" fill="none" stroke="#fff" stroke-opacity="0.38" stroke-width="1" stroke-linecap="round"/><path d="M 97.4 0 Q 99.8 -6.1 116 -8.1" fill="none" stroke="#fff" stroke-opacity="0.38" stroke-width="1" stroke-linecap="round"/><path d="M 97.4 0 Q 99.8 6.1 116 8.1" fill="none" stroke="#fff" stroke-opacity="0.38" stroke-width="1" stroke-linecap="round"/><path d="M -20.9 0 L 0 0" fill="none" stroke="currentColor" stroke-width="2.4" stroke-linecap="round"/></g>
  <g transform="translate(438 -22) rotate(118)"><path d="M0 0 C 20.5 -28.5 76.8 -30.8 128 0 C 76.8 30.8 20.5 28.5 0 0 Z" fill="currentColor"/><path d="M 5.1 0 L 121.6 0" fill="none" stroke="#fff" stroke-opacity="0.5" stroke-width="1.4" stroke-linecap="round"/><path d="M 35.8 0 Q 38.4 -14.7 56.3 -19.6" fill="none" stroke="#fff" stroke-opacity="0.38" stroke-width="1" stroke-linecap="round"/><path d="M 35.8 0 Q 38.4 14.7 56.3 19.6" fill="none" stroke="#fff" stroke-opacity="0.38" stroke-width="1" stroke-linecap="round"/><path d="M 53.8 0 Q 56.3 -18.1 74.2 -24.1" fill="none" stroke="#fff" stroke-opacity="0.38" stroke-width="1" stroke-linecap="round"/><path d="M 53.8 0 Q 56.3 18.1 74.2 24.1" fill="none" stroke="#fff" stroke-opacity="0.38" stroke-width="1" stroke-linecap="round"/><path d="M 71.7 0 Q 74.2 -17.7 92.2 -23.6" fill="none" stroke="#fff" stroke-opacity="0.38" stroke-width="1" stroke-linecap="round"/><path d="M 71.7 0 Q 74.2 17.7 92.2 23.6" fill="none" stroke="#fff" stroke-opacity="0.38" stroke-width="1" stroke-linecap="round"/><path d="M 89.6 0 Q 92.2 -13.6 110.1 -18.1" fill="none" stroke="#fff" stroke-opacity="0.38" stroke-width="1" stroke-linecap="round"/><path d="M 89.6 0 Q 92.2 13.6 110.1 18.1" fill="none" stroke="#fff" stroke-opacity="0.38" stroke-width="1" stroke-linecap="round"/><path d="M 107.5 0 Q 110.1 -6.7 128 -8.9" fill="none" stroke="#fff" stroke-opacity="0.38" stroke-width="1" stroke-linecap="round"/><path d="M 107.5 0 Q 110.1 6.7 128 8.9" fill="none" stroke="#fff" stroke-opacity="0.38" stroke-width="1" stroke-linecap="round"/><path d="M -23 0 L 0 0" fill="none" stroke="currentColor" stroke-width="2.4" stroke-linecap="round"/></g>
</g>

<g color="#047857" opacity="0.22">
  <g transform="translate(-30 -10) rotate(40)"><path d="M0 0 C 16.6 -23 62.4 -24.8 104 0 C 62.4 24.8 16.6 23 0 0 Z" fill="currentColor"/><path d="M 4.2 0 L 98.8 0" fill="none" stroke="#fff" stroke-opacity="0.5" stroke-width="1.4" stroke-linecap="round"/><path d="M 29.1 0 Q 31.2 -11.8 45.8 -15.8" fill="none" stroke="#fff" stroke-opacity="0.38" stroke-width="1" stroke-linecap="round"/><path d="M 29.1 0 Q 31.2 11.8 45.8 15.8" fill="none" stroke="#fff" stroke-opacity="0.38" stroke-width="1" stroke-linecap="round"/><path d="M 43.7 0 Q 45.8 -14.6 60.3 -19.4" fill="none" stroke="#fff" stroke-opacity="0.38" stroke-width="1" stroke-linecap="round"/><path d="M 43.7 0 Q 45.8 14.6 60.3 19.4" fill="none" stroke="#fff" stroke-opacity="0.38" stroke-width="1" stroke-linecap="round"/><path d="M 58.2 0 Q 60.3 -14.3 74.9 -19" fill="none" stroke="#fff" stroke-opacity="0.38" stroke-width="1" stroke-linecap="round"/><path d="M 58.2 0 Q 60.3 14.3 74.9 19" fill="none" stroke="#fff" stroke-opacity="0.38" stroke-width="1" stroke-linecap="round"/><path d="M 72.8 0 Q 74.9 -11 89.4 -14.6" fill="none" stroke="#fff" stroke-opacity="0.38" stroke-width="1" stroke-linecap="round"/><path d="M 72.8 0 Q 74.9 11 89.4 14.6" fill="none" stroke="#fff" stroke-opacity="0.38" stroke-width="1" stroke-linecap="round"/><path d="M 87.4 0 Q 89.4 -5.4 104 -7.2" fill="none" stroke="#fff" stroke-opacity="0.38" stroke-width="1" stroke-linecap="round"/><path d="M 87.4 0 Q 89.4 5.4 104 7.2" fill="none" stroke="#fff" stroke-opacity="0.38" stroke-width="1" stroke-linecap="round"/><path d="M -18.7 0 L 0 0" fill="none" stroke="currentColor" stroke-width="2.4" stroke-linecap="round"/></g>
  <g transform="translate(54 -18) rotate(66)"><path d="M0 0 C 14.1 -20 52.8 -21.6 88 0 C 52.8 21.6 14.1 20 0 0 Z" fill="currentColor"/><path d="M 3.5 0 L 83.6 0" fill="none" stroke="#fff" stroke-opacity="0.5" stroke-width="1.4" stroke-linecap="round"/><path d="M 24.6 0 Q 26.4 -10.3 38.7 -13.7" fill="none" stroke="#fff" stroke-opacity="0.38" stroke-width="1" stroke-linecap="round"/><path d="M 24.6 0 Q 26.4 10.3 38.7 13.7" fill="none" stroke="#fff" stroke-opacity="0.38" stroke-width="1" stroke-linecap="round"/><path d="M 37 0 Q 38.7 -12.7 51 -16.9" fill="none" stroke="#fff" stroke-opacity="0.38" stroke-width="1" stroke-linecap="round"/><path d="M 37 0 Q 38.7 12.7 51 16.9" fill="none" stroke="#fff" stroke-opacity="0.38" stroke-width="1" stroke-linecap="round"/><path d="M 49.3 0 Q 51 -12.4 63.4 -16.5" fill="none" stroke="#fff" stroke-opacity="0.38" stroke-width="1" stroke-linecap="round"/><path d="M 49.3 0 Q 51 12.4 63.4 16.5" fill="none" stroke="#fff" stroke-opacity="0.38" stroke-width="1" stroke-linecap="round"/><path d="M 61.6 0 Q 63.4 -9.5 75.7 -12.7" fill="none" stroke="#fff" stroke-opacity="0.38" stroke-width="1" stroke-linecap="round"/><path d="M 61.6 0 Q 63.4 9.5 75.7 12.7" fill="none" stroke="#fff" stroke-opacity="0.38" stroke-width="1" stroke-linecap="round"/><path d="M 73.9 0 Q 75.7 -4.7 88 -6.2" fill="none" stroke="#fff" stroke-opacity="0.38" stroke-width="1" stroke-linecap="round"/><path d="M 73.9 0 Q 75.7 4.7 88 6.2" fill="none" stroke="#fff" stroke-opacity="0.38" stroke-width="1" stroke-linecap="round"/><path d="M -15.8 0 L 0 0" fill="none" stroke="currentColor" stroke-width="2.4" stroke-linecap="round"/></g>
  <g transform="translate(158 -14) rotate(96)"><path d="M0 0 C 13.1 -18.5 49.2 -20 82 0 C 49.2 20 13.1 18.5 0 0 Z" fill="currentColor"/><path d="M 3.3 0 L 77.9 0" fill="none" stroke="#fff" stroke-opacity="0.5" stroke-width="1.4" stroke-linecap="round"/><path d="M 23 0 Q 24.6 -9.5 36.1 -12.7" fill="none" stroke="#fff" stroke-opacity="0.38" stroke-width="1" stroke-linecap="round"/><path d="M 23 0 Q 24.6 9.5 36.1 12.7" fill="none" stroke="#fff" stroke-opacity="0.38" stroke-width="1" stroke-linecap="round"/><path d="M 34.4 0 Q 36.1 -11.7 47.6 -15.6" fill="none" stroke="#fff" stroke-opacity="0.38" stroke-width="1" stroke-linecap="round"/><path d="M 34.4 0 Q 36.1 11.7 47.6 15.6" fill="none" stroke="#fff" stroke-opacity="0.38" stroke-width="1" stroke-linecap="round"/><path d="M 45.9 0 Q 47.6 -11.5 59 -15.3" fill="none" stroke="#fff" stroke-opacity="0.38" stroke-width="1" stroke-linecap="round"/><path d="M 45.9 0 Q 47.6 11.5 59 15.3" fill="none" stroke="#fff" stroke-opacity="0.38" stroke-width="1" stroke-linecap="round"/><path d="M 57.4 0 Q 59 -8.8 70.5 -11.8" fill="none" stroke="#fff" stroke-opacity="0.38" stroke-width="1" stroke-linecap="round"/><path d="M 57.4 0 Q 59 8.8 70.5 11.8" fill="none" stroke="#fff" stroke-opacity="0.38" stroke-width="1" stroke-linecap="round"/><path d="M 68.9 0 Q 70.5 -4.3 82 -5.8" fill="none" stroke="#fff" stroke-opacity="0.38" stroke-width="1" stroke-linecap="round"/><path d="M 68.9 0 Q 70.5 4.3 82 5.8" fill="none" stroke="#fff" stroke-opacity="0.38" stroke-width="1" stroke-linecap="round"/><path d="M -14.8 0 L 0 0" fill="none" stroke="currentColor" stroke-width="2.4" stroke-linecap="round"/></g>
  <g transform="translate(268 -18) rotate(78)"><path d="M0 0 C 14.7 -20.5 55.2 -22.1 92 0 C 55.2 22.1 14.7 20.5 0 0 Z" fill="currentColor"/><path d="M 3.7 0 L 87.4 0" fill="none" stroke="#fff" stroke-opacity="0.5" stroke-width="1.4" stroke-linecap="round"/><path d="M 25.8 0 Q 27.6 -10.5 40.5 -14.1" fill="none" stroke="#fff" stroke-opacity="0.38" stroke-width="1" stroke-linecap="round"/><path d="M 25.8 0 Q 27.6 10.5 40.5 14.1" fill="none" stroke="#fff" stroke-opacity="0.38" stroke-width="1" stroke-linecap="round"/><path d="M 38.6 0 Q 40.5 -13 53.4 -17.3" fill="none" stroke="#fff" stroke-opacity="0.38" stroke-width="1" stroke-linecap="round"/><path d="M 38.6 0 Q 40.5 13 53.4 17.3" fill="none" stroke="#fff" stroke-opacity="0.38" stroke-width="1" stroke-linecap="round"/><path d="M 51.5 0 Q 53.4 -12.7 66.2 -17" fill="none" stroke="#fff" stroke-opacity="0.38" stroke-width="1" stroke-linecap="round"/><path d="M 51.5 0 Q 53.4 12.7 66.2 17" fill="none" stroke="#fff" stroke-opacity="0.38" stroke-width="1" stroke-linecap="round"/><path d="M 64.4 0 Q 66.2 -9.8 79.1 -13" fill="none" stroke="#fff" stroke-opacity="0.38" stroke-width="1" stroke-linecap="round"/><path d="M 64.4 0 Q 66.2 9.8 79.1 13" fill="none" stroke="#fff" stroke-opacity="0.38" stroke-width="1" stroke-linecap="round"/><path d="M 77.3 0 Q 79.1 -4.8 92 -6.4" fill="none" stroke="#fff" stroke-opacity="0.38" stroke-width="1" stroke-linecap="round"/><path d="M 77.3 0 Q 79.1 4.8 92 6.4" fill="none" stroke="#fff" stroke-opacity="0.38" stroke-width="1" stroke-linecap="round"/><path d="M -16.6 0 L 0 0" fill="none" stroke="currentColor" stroke-width="2.4" stroke-linecap="round"/></g>
  <g transform="translate(380 -12) rotate(106)"><path d="M0 0 C 13.8 -19.5 51.6 -21.1 86 0 C 51.6 21.1 13.8 19.5 0 0 Z" fill="currentColor"/><path d="M 3.4 0 L 81.7 0" fill="none" stroke="#fff" stroke-opacity="0.5" stroke-width="1.4" stroke-linecap="round"/><path d="M 24.1 0 Q 25.8 -10 37.8 -13.4" fill="none" stroke="#fff" stroke-opacity="0.38" stroke-width="1" stroke-linecap="round"/><path d="M 24.1 0 Q 25.8 10 37.8 13.4" fill="none" stroke="#fff" stroke-opacity="0.38" stroke-width="1" stroke-linecap="round"/><path d="M 36.1 0 Q 37.8 -12.4 49.9 -16.5" fill="none" stroke="#fff" stroke-opacity="0.38" stroke-width="1" stroke-linecap="round"/><path d="M 36.1 0 Q 37.8 12.4 49.9 16.5" fill="none" stroke="#fff" stroke-opacity="0.38" stroke-width="1" stroke-linecap="round"/><path d="M 48.2 0 Q 49.9 -12.1 61.9 -16.1" fill="none" stroke="#fff" stroke-opacity="0.38" stroke-width="1" stroke-linecap="round"/><path d="M 48.2 0 Q 49.9 12.1 61.9 16.1" fill="none" stroke="#fff" stroke-opacity="0.38" stroke-width="1" stroke-linecap="round"/><path d="M 60.2 0 Q 61.9 -9.3 74 -12.4" fill="none" stroke="#fff" stroke-opacity="0.38" stroke-width="1" stroke-linecap="round"/><path d="M 60.2 0 Q 61.9 9.3 74 12.4" fill="none" stroke="#fff" stroke-opacity="0.38" stroke-width="1" stroke-linecap="round"/><path d="M 72.2 0 Q 74 -4.6 86 -6.1" fill="none" stroke="#fff" stroke-opacity="0.38" stroke-width="1" stroke-linecap="round"/><path d="M 72.2 0 Q 74 4.6 86 6.1" fill="none" stroke="#fff" stroke-opacity="0.38" stroke-width="1" stroke-linecap="round"/><path d="M -15.5 0 L 0 0" fill="none" stroke="currentColor" stroke-width="2.4" stroke-linecap="round"/></g>
  <g transform="translate(452 -6) rotate(136)"><path d="M0 0 C 16 -22 60 -23.8 100 0 C 60 23.8 16 22 0 0 Z" fill="currentColor"/><path d="M 4 0 L 95 0" fill="none" stroke="#fff" stroke-opacity="0.5" stroke-width="1.4" stroke-linecap="round"/><path d="M 28 0 Q 30 -11.3 44 -15.1" fill="none" stroke="#fff" stroke-opacity="0.38" stroke-width="1" stroke-linecap="round"/><path d="M 28 0 Q 30 11.3 44 15.1" fill="none" stroke="#fff" stroke-opacity="0.38" stroke-width="1" stroke-linecap="round"/><path d="M 42 0 Q 44 -13.9 58 -18.6" fill="none" stroke="#fff" stroke-opacity="0.38" stroke-width="1" stroke-linecap="round"/><path d="M 42 0 Q 44 13.9 58 18.6" fill="none" stroke="#fff" stroke-opacity="0.38" stroke-width="1" stroke-linecap="round"/><path d="M 56 0 Q 58 -13.7 72 -18.2" fill="none" stroke="#fff" stroke-opacity="0.38" stroke-width="1" stroke-linecap="round"/><path d="M 56 0 Q 58 13.7 72 18.2" fill="none" stroke="#fff" stroke-opacity="0.38" stroke-width="1" stroke-linecap="round"/><path d="M 70 0 Q 72 -10.5 86 -14" fill="none" stroke="#fff" stroke-opacity="0.38" stroke-width="1" stroke-linecap="round"/><path d="M 70 0 Q 72 10.5 86 14" fill="none" stroke="#fff" stroke-opacity="0.38" stroke-width="1" stroke-linecap="round"/><path d="M 84 0 Q 86 -5.1 100 -6.9" fill="none" stroke="#fff" stroke-opacity="0.38" stroke-width="1" stroke-linecap="round"/><path d="M 84 0 Q 86 5.1 100 6.9" fill="none" stroke="#fff" stroke-opacity="0.38" stroke-width="1" stroke-linecap="round"/><path d="M -18 0 L 0 0" fill="none" stroke="currentColor" stroke-width="2.4" stroke-linecap="round"/></g>
</g>
</svg>